<?xml version="1.0" standalone="no"?>
<!DOCTYPE svg PUBLIC "-//W3C//DTD SVG 20010904//EN"
 "http://www.w3.org/TR/2001/REC-SVG-20010904/DTD/svg10.dtd">
<svg version="1.0" xmlns="http://www.w3.org/2000/svg"
 width="335.000000pt" height="335.000000pt" viewBox="0 0 335.000000 335.000000"
 preserveAspectRatio="xMidYMid meet">
<metadata>
Created by potrace 1.14, written by Peter Selinger 2001-2017
</metadata>
<g transform="translate(0.000000,335.000000) scale(0.100000,-0.100000)"
fill="#000000" stroke="none">
<path d="M205 3330 c9 -16 43 -66 554 -819 177 -260 326 -481 331 -490 5 -10
6 -36 3 -58 l-5 -41 -182 143 c-99 79 -183 142 -184 140 -2 -2 4 -40 14 -85
l17 -81 164 -130 c120 -95 163 -135 159 -147 -2 -9 -8 -55 -11 -102 -4 -47
-12 -137 -19 -200 l-12 -115 54 -155 c29 -85 62 -180 72 -210 16 -47 127 -367
143 -410 3 -8 17 -49 31 -90 26 -72 50 -115 42 -74 -2 10 -7 64 -11 119 -9
136 -14 201 -20 260 -2 28 -7 91 -10 140 -3 50 -7 113 -10 140 -2 28 -7 86
-10 130 -3 44 -7 103 -10 130 -2 28 -7 91 -10 140 -3 50 -8 105 -10 123 l-5
33 27 -19 c53 -38 61 -56 89 -192 15 -74 30 -138 33 -142 5 -6 7 330 2 367 0
6 -37 39 -81 74 -44 36 -80 67 -81 70 0 3 -2 13 -4 22 -1 9 -6 65 -10 125 -4
60 -8 125 -10 144 -2 19 -6 78 -9 130 -16 238 -13 221 -60 265 -49 46 -364
330 -506 455 -52 47 -97 87 -100 90 -3 3 -48 43 -100 90 -116 104 -108 96
-161 144 -24 22 -59 53 -78 70 -19 17 -30 24 -26 16z"/>
<path d="M3089 3297 c-90 -82 -284 -256 -309 -277 -14 -12 -43 -38 -65 -58
-69 -63 -219 -197 -248 -223 -16 -13 -46 -40 -66 -59 -21 -19 -74 -66 -117
-105 -43 -38 -98 -88 -121 -110 -46 -44 -46 -45 -58 -220 -4 -49 -8 -101 -10
-115 -2 -14 -7 -68 -11 -120 -3 -52 -8 -104 -9 -115 -1 -11 -3 -41 -4 -66 -1
-46 -1 -46 -94 -118 l-94 -71 0 -185 c0 -102 4 -182 7 -178 4 4 22 68 40 141
32 129 34 134 75 167 40 33 62 44 52 28 -3 -5 -8 -62 -11 -128 -4 -66 -9 -133
-11 -150 -2 -16 -7 -73 -10 -125 -3 -52 -7 -117 -10 -145 -8 -97 -15 -191 -20
-270 -3 -44 -7 -102 -10 -130 -2 -27 -7 -90 -10 -140 -3 -49 -8 -105 -11 -124
-2 -19 -2 -32 1 -29 5 5 114 314 235 663 26 77 61 176 76 220 25 70 28 89 23
150 -4 39 -10 106 -14 150 -4 44 -10 112 -15 150 -4 43 -3 75 2 82 6 7 79 66
162 132 l152 119 17 79 c9 43 17 82 17 86 0 8 -89 -59 -262 -196 l-106 -85 -5
41 c-5 51 -14 35 196 345 382 561 512 754 595 877 48 72 91 133 97 137 5 4 7
9 5 12 -3 2 -26 -14 -51 -37z"/>
<path d="M1523 2227 c-5 -8 1 -146 12 -277 2 -30 7 -102 11 -160 3 -58 7 -130
10 -160 7 -107 13 -206 19 -300 3 -52 8 -115 10 -140 2 -25 7 -90 10 -145 3
-55 8 -129 10 -165 10 -145 26 -377 30 -455 3 -58 16 -252 21 -310 1 -22 3
-57 3 -77 1 -21 5 -38 9 -38 5 0 9 6 9 13 0 19 14 247 18 292 2 36 8 118 21
305 2 36 6 99 9 140 3 41 8 109 10 150 3 41 7 107 10 145 2 39 7 108 10 155 3
47 8 110 10 140 2 30 7 100 10 155 4 55 8 120 10 145 2 25 6 92 10 150 3 58 8
121 10 140 2 19 7 85 10 145 3 61 8 117 10 125 3 8 1 20 -3 25 -8 12 -292 14
-299 2z"/>
</g>
</svg>
